<?xml version="1.0" standalone="no"?>
<!DOCTYPE svg PUBLIC "-//W3C//DTD SVG 20010904//EN"
 "http://www.w3.org/TR/2001/REC-SVG-20010904/DTD/svg10.dtd">
<svg version="1.0" xmlns="http://www.w3.org/2000/svg"
 width="1024.000000pt" height="1024.000000pt" viewBox="0 0 1024.000000 1024.000000"
 preserveAspectRatio="xMidYMid meet">
<metadata>
Created by potrace 1.14, written by Peter Selinger 2001-2017
</metadata>
<g transform="translate(0.000000,1024.000000) scale(0.100000,-0.100000)"
fill="#000000" stroke="none">
<path d="M4998 9273 c7 -3 16 -2 19 1 4 3 -2 6 -13 5 -11 0 -14 -3 -6 -6z"/>
<path d="M5103 9273 c15 -2 37 -2 50 0 12 2 0 4 -28 4 -27 0 -38 -2 -22 -4z"/>
<path d="M5368 9273 c12 -2 32 -2 45 0 12 2 2 4 -23 4 -25 0 -35 -2 -22 -4z"/>
<path d="M4923 9263 c9 -2 23 -2 30 0 6 3 -1 5 -18 5 -16 0 -22 -2 -12 -5z"/>
<path d="M5598 9263 c12 -2 30 -2 40 0 9 3 -1 5 -23 4 -22 0 -30 -2 -17 -4z"/>
<path d="M4818 9253 c7 -3 16 -2 19 1 4 3 -2 6 -13 5 -11 0 -14 -3 -6 -6z"/>
<path d="M5698 9253 c6 -2 18 -2 25 0 6 3 1 5 -13 5 -14 0 -19 -2 -12 -5z"/>
<path d="M4608 9233 c7 -3 16 -2 19 1 4 3 -2 6 -13 5 -11 0 -14 -3 -6 -6z"/>
<path d="M6058 9203 c7 -3 16 -2 19 1 4 3 -2 6 -13 5 -11 0 -14 -3 -6 -6z"/>
<path d="M4338 9193 c7 -3 16 -2 19 1 4 3 -2 6 -13 5 -11 0 -14 -3 -6 -6z"/>
<path d="M6145 9190 c-3 -5 -1 -10 4 -10 6 0 11 5 11 10 0 6 -2 10 -4 10 -3 0
-8 -4 -11 -10z"/>
<path d="M6228 9163 c7 -3 16 -2 19 1 4 3 -2 6 -13 5 -11 0 -14 -3 -6 -6z"/>
<path d="M6278 9153 c7 -3 16 -2 19 1 4 3 -2 6 -13 5 -11 0 -14 -3 -6 -6z"/>
<path d="M3920 9086 c4 -4 16 -4 26 2 16 9 14 10 -8 9 -15 -1 -23 -6 -18 -11z"/>
<path d="M6625 9060 c-3 -5 -1 -10 4 -10 6 0 11 5 11 10 0 6 -2 10 -4 10 -3 0
-8 -4 -11 -10z"/>
<path d="M6700 9030 c0 -5 5 -10 11 -10 5 0 7 5 4 10 -3 6 -8 10 -11 10 -2 0
-4 -4 -4 -10z"/>
<path d="M6735 9020 c4 -6 11 -8 16 -5 14 9 11 15 -7 15 -8 0 -12 -5 -9 -10z"/>
<path d="M6840 8976 c29 -17 40 -20 40 -8 0 5 -6 9 -12 9 -7 0 -22 4 -33 7
-13 5 -12 2 5 -8z"/>
<path d="M5085 8963 c-85 -3 -357 -30 -440 -44 -150 -24 -331 -63 -344 -72 -7
-6 -20 -12 -30 -13 -92 -14 -123 -23 -115 -36 4 -6 -1 -8 -15 -3 -11 3 -21 2
-21 -3 0 -6 -9 -8 -20 -5 -11 3 -20 1 -20 -5 0 -6 -10 -8 -22 -4 -12 3 -19 1
-15 -4 3 -6 -9 -11 -26 -11 -36 -2 -264 -76 -372 -121 -78 -33 -391 -188 -463
-229 -71 -41 -325 -212 -424 -285 -105 -78 -317 -269 -448 -404 -348 -361
-699 -909 -856 -1338 -31 -83 -60 -164 -66 -179 l-11 -28 -154 2 c-84 2 -158
6 -164 10 -35 21 68 310 222 624 38 77 60 129 49 115 -40 -47 -246 -481 -272
-570 -39 -136 -53 -176 -61 -181 -14 -10 687 -21 973 -16 l255 5 26 69 c31 83
162 345 220 439 70 115 134 206 206 295 38 46 89 111 114 144 26 33 68 80 95
105 26 25 91 86 143 137 105 100 145 134 323 269 182 139 315 214 572 325 305
131 702 228 1061 258 131 11 483 6 610 -9 393 -46 678 -128 1030 -297 311
-149 648 -402 918 -689 167 -178 221 -245 335 -414 89 -133 285 -496 319 -591
l18 -49 370 0 370 0 -1 62 c0 35 2 92 6 128 5 56 2 77 -23 145 -121 342 -398
785 -713 1144 -233 265 -359 380 -678 619 -146 110 -455 283 -681 382 -379
165 -851 284 -1255 315 -90 7 -407 12 -525 8z m410 -42 c25 -6 -432 -26 -601
-26 -37 0 -50 -4 -47 -12 3 -7 0 -13 -5 -13 -16 0 -24 18 -11 26 8 4 7 9 -2
16 -10 7 -9 8 6 4 11 -3 49 -2 85 3 78 10 532 12 575 2z m-700 -30 l-20 -4 20
-8 c14 -5 6 -8 -30 -9 -27 -1 -59 -3 -70 -5 -11 -2 -39 -7 -63 -10 -24 -3 -84
-15 -135 -26 -51 -11 -114 -25 -142 -31 -79 -16 -339 -94 -455 -136 -30 -11
-75 -23 -100 -27 l-45 -7 27 21 c31 25 375 141 417 141 15 0 45 8 67 18 38 18
134 38 221 47 23 2 51 9 64 15 12 7 44 10 75 8 29 -3 55 -1 56 4 2 5 25 11 51
12 26 2 51 6 54 9 3 4 11 3 17 -1 7 -4 3 -8 -9 -11z m343 -162 c34 -12 47 -37
38 -75 -8 -29 -20 -30 -53 -4 -31 24 -76 26 -98 4 -30 -30 -18 -40 115 -91 58
-22 78 -34 88 -56 20 -42 7 -91 -37 -137 -34 -36 -43 -40 -86 -40 -49 0 -107
22 -155 60 l-25 19 22 23 c22 22 23 22 70 5 60 -21 91 -22 115 0 39 35 10 59
-94 82 -104 22 -142 105 -75 168 17 17 41 35 52 41 26 15 84 15 123 1z m-393
-84 l0 -40 -54 -3 c-52 -3 -53 -4 -48 -31 18 -91 39 -261 34 -275 -6 -16 -67
-24 -67 -8 0 20 -48 283 -52 287 -3 3 -27 -2 -53 -10 -56 -16 -65 -11 -65 42
0 30 2 32 58 44 100 20 206 37 227 36 16 -2 20 -9 20 -42z m1193 20 c49 -21
81 -52 103 -100 26 -55 24 -92 -8 -156 -31 -60 -96 -112 -157 -123 -148 -28
-284 163 -206 289 24 38 70 78 110 94 38 15 116 13 158 -4z m-1688 -85 c14 0
21 -13 30 -52 7 -29 28 -102 46 -161 39 -125 41 -143 16 -156 -18 -10 -52 7
-255 124 -26 15 -50 25 -52 23 -3 -2 8 -38 24 -79 16 -41 32 -89 35 -106 7
-29 4 -34 -19 -45 -38 -17 -49 -2 -105 162 -52 150 -62 210 -35 210 27 0 111
-38 205 -94 52 -31 95 -55 96 -53 1 1 -6 45 -17 97 -23 121 -24 144 -3 136 9
-3 24 -6 34 -6z m2171 -40 c112 -40 125 -50 110 -78 -16 -29 -39 -28 -123 8
-38 17 -72 30 -74 30 -3 0 -24 -69 -24 -81 0 -4 27 -17 61 -29 65 -25 75 -36
65 -75 -8 -32 -35 -32 -103 0 l-53 24 -21 -72 c-12 -40 -23 -73 -23 -74 -1 -1
-19 2 -39 8 -25 7 -37 16 -37 28 0 18 64 204 103 299 25 62 21 62 158 12z
m-2701 -169 c19 -37 10 -46 -82 -91 -51 -25 -94 -52 -95 -60 -2 -8 5 -25 15
-38 l17 -22 65 35 c85 46 92 45 88 -7 -3 -42 -4 -43 -60 -63 -31 -11 -59 -23
-63 -26 -9 -10 17 -59 32 -59 7 0 54 16 104 37 88 35 92 35 105 18 29 -39 15
-52 -101 -100 -38 -16 -82 -38 -97 -48 -15 -11 -33 -17 -40 -15 -32 13 -184
327 -162 335 5 2 61 31 124 63 63 32 120 59 127 59 7 1 17 -8 23 -18z m3330
-91 c66 -33 120 -65 120 -70 0 -14 -41 -70 -51 -70 -5 0 -25 11 -45 25 -29 20
-40 23 -51 13 -8 -6 -44 -64 -81 -130 -36 -65 -72 -118 -79 -118 -7 0 -26 12
-43 28 l-29 27 60 90 c34 50 72 104 85 122 13 17 24 34 24 37 0 3 -18 15 -40
26 -41 21 -51 45 -28 68 19 19 32 15 158 -48z m-3822 -212 c17 -17 15 -46 -5
-56 -10 -6 -38 -13 -63 -17 -33 -6 -55 -18 -82 -45 -33 -33 -38 -44 -38 -84 0
-58 12 -81 52 -102 72 -37 185 3 221 78 29 60 -5 60 -83 1 l-45 -35 -3 31 c-2
16 2 39 7 50 10 17 141 117 145 109 0 -2 9 -16 19 -33 37 -61 48 -97 41 -128
-8 -38 -100 -132 -148 -152 -80 -34 -219 -3 -258 57 -70 107 -18 263 107 319
47 21 116 24 133 7z m4181 -7 c12 -8 10 -16 -12 -48 -14 -21 -39 -52 -55 -69
l-28 -31 62 -52 c35 -28 69 -54 78 -57 10 -4 29 13 59 54 l43 59 32 -26 c18
-14 32 -30 32 -35 0 -5 -37 -48 -82 -96 -46 -47 -102 -109 -126 -138 -24 -29
-48 -52 -55 -52 -7 1 -23 9 -35 20 l-24 20 31 38 c16 22 37 45 46 52 8 7 15
19 15 27 0 14 -53 66 -100 96 l-27 17 -27 -39 c-15 -21 -37 -48 -50 -60 l-23
-22 -32 26 c-17 15 -31 30 -31 34 0 21 268 291 287 291 5 0 14 -4 22 -9z m461
-445 c93 -91 107 -120 68 -135 -20 -7 -32 0 -85 50 -34 33 -65 59 -70 59 -5 0
-20 -12 -34 -26 l-24 -25 43 -40 c50 -46 52 -72 7 -77 -24 -2 -38 5 -65 33
-40 42 -54 43 -76 10 -16 -25 -15 -26 40 -86 31 -33 56 -64 56 -68 0 -4 -12
-18 -26 -32 l-26 -24 -25 30 c-13 17 -54 63 -90 103 -36 40 -64 74 -62 76 2 1
45 39 94 82 50 44 107 93 128 108 20 16 37 35 37 43 0 23 14 13 110 -81z
m-5173 20 c38 -8 91 -25 118 -36 28 -12 81 -33 119 -46 74 -25 96 -39 96 -59
0 -21 -55 -38 -99 -30 -38 6 -44 4 -100 -45 -56 -50 -58 -54 -50 -84 5 -17 9
-36 9 -42 0 -14 -51 -37 -61 -27 -14 16 -149 322 -149 340 0 22 18 43 36 43 7
0 43 -6 81 -14z"/>
<path d="M5813 8603 c-12 -2 -36 -20 -53 -39 -58 -66 -28 -159 59 -185 71 -21
151 40 151 116 0 20 -4 44 -10 54 -20 39 -93 66 -147 54z"/>
<path d="M2680 7545 c0 -11 50 -104 58 -109 10 -6 82 51 82 65 0 14 -80 49
-112 49 -16 0 -28 -2 -28 -5z"/>
<path d="M3480 8925 c-11 -13 -10 -14 4 -9 9 3 16 10 16 15 0 13 -6 11 -20 -6z"/>
<path d="M3422 8911 c-11 -7 -11 -9 2 -14 10 -4 16 -1 16 8 0 17 -1 17 -18 6z"/>
<path d="M7071 8876 c11 -10 153 -77 144 -68 -11 12 -130 72 -141 72 -4 0 -5
-2 -3 -4z"/>
<path d="M7370 8716 c0 -7 102 -67 106 -63 2 2 -19 18 -47 35 -50 32 -59 36
-59 28z"/>
<path d="M7490 8645 c0 -2 18 -14 40 -25 22 -11 40 -18 40 -15 0 2 -18 14 -40
25 -22 11 -40 18 -40 15z"/>
<path d="M7620 8566 c0 -2 18 -15 40 -30 23 -15 38 -31 35 -36 -4 -6 -3 -10 2
-11 4 0 18 -2 31 -3 26 -3 25 -2 -46 47 -49 35 -62 42 -62 33z"/>
<path d="M2683 8495 c-10 -10 -9 -14 2 -19 17 -6 26 5 17 21 -5 8 -11 7 -19
-2z"/>
<path d="M7760 8476 c0 -3 27 -26 60 -51 37 -28 58 -51 54 -58 -4 -7 -3 -9 1
-4 5 4 17 0 27 -10 10 -9 21 -14 23 -11 3 3 -20 28 -52 55 -58 49 -113 87
-113 79z"/>
<path d="M2653 8458 c1 -7 -4 -12 -11 -10 -8 1 -11 -2 -7 -8 5 -8 11 -8 21 1
7 6 11 15 8 20 -8 13 -14 11 -11 -3z"/>
<path d="M2587 8420 c-21 -24 -21 -30 -3 -30 19 0 36 23 27 38 -5 8 -12 6 -24
-8z"/>
<path d="M2540 8380 c-11 -7 -12 -12 -4 -20 8 -8 14 -7 23 4 14 17 1 28 -19
16z"/>
<path d="M2496 8351 c-3 -5 0 -11 7 -14 8 -3 14 1 14 9 0 16 -13 19 -21 5z"/>
<path d="M7797 8349 c7 -7 15 -10 18 -7 3 3 -2 9 -12 12 -14 6 -15 5 -6 -5z"/>
<path d="M7890 8328 c0 -4 -7 -8 -15 -8 -8 0 -15 -3 -15 -8 0 -4 53 -53 118
-110 132 -114 330 -313 441 -441 106 -124 317 -408 401 -541 167 -264 313
-550 392 -770 64 -175 68 -189 68 -226 l0 -34 -62 -1 c-35 0 -85 -5 -113 -9
-34 -6 3 -8 114 -5 90 3 165 6 167 7 9 10 -23 117 -41 138 -35 39 -45 65 -45
117 0 68 -16 109 -145 370 -63 128 -115 237 -115 242 0 6 -6 14 -13 18 -21 14
-108 167 -104 183 3 10 -7 24 -22 34 -23 16 -177 228 -192 266 -4 9 -15 22
-24 30 -10 8 -36 40 -58 70 -23 30 -48 61 -58 67 -9 7 -50 54 -90 105 -149
190 -496 508 -560 512 -16 1 -29 -1 -29 -6z m739 -702 c46 -57 47 -71 1 -32
-17 14 -36 26 -42 26 -6 0 -8 7 -5 15 4 8 2 17 -3 20 -13 8 -13 28 -1 23 5 -1
27 -25 50 -52z"/>
<path d="M2455 8320 c-8 -13 23 -20 34 -6 7 8 5 12 -9 13 -11 1 -22 -2 -25 -7z"/>
<path d="M2410 8290 c-9 -6 -10 -10 -3 -10 6 0 15 5 18 10 8 12 4 12 -15 0z"/>
<path d="M2393 8263 c4 -3 -1 -16 -10 -27 -18 -21 -18 -21 4 -2 20 16 23 36 6
36 -4 0 -3 -3 0 -7z"/>
<path d="M2320 8210 c-9 -6 -10 -10 -3 -10 6 0 15 5 18 10 8 12 4 12 -15 0z"/>
<path d="M2287 8155 c-15 -14 -27 -29 -27 -32 0 -4 14 6 30 22 28 26 34 35 27
35 -1 0 -15 -11 -30 -25z"/>
<path d="M5015 8160 c-466 -29 -1079 -219 -1454 -452 -399 -247 -685 -518
-978 -928 -94 -133 -243 -413 -301 -565 l-19 -51 301 1 300 0 45 77 c138 233
282 422 423 559 l68 65 -157 159 c-87 87 -149 152 -138 144 59 -42 149 -122
220 -196 44 -45 87 -83 96 -83 9 0 42 23 73 50 99 87 249 179 511 315 152 79
228 110 428 176 140 46 472 117 486 104 11 -12 -23 -23 -138 -45 -318 -61
-548 -143 -831 -298 -223 -122 -277 -155 -396 -243 -86 -63 -95 -73 -78 -82
10 -6 53 -38 94 -71 41 -34 112 -87 158 -119 80 -57 104 -80 60 -56 -13 7 -63
40 -113 75 -49 35 -123 87 -164 115 l-73 52 -95 -94 c-121 -121 -222 -245
-315 -389 -79 -122 -130 -211 -125 -216 2 -2 119 -4 260 -4 l257 -1 -12 -22
c-6 -12 -17 -26 -24 -32 -39 -30 -183 -351 -214 -478 l-12 -47 -542 5 c-372 3
-532 2 -511 -5 19 -6 108 -8 235 -5 113 3 318 2 455 -3 206 -7 129 -9 -432 -8
-440 1 -686 5 -692 11 -7 7 24 9 92 8 l102 -1 -95 8 c-147 13 -191 33 -352
161 -54 43 -108 83 -120 90 -30 16 -156 118 -242 197 -38 35 -96 77 -130 95
l-61 31 40 7 40 6 -38 2 c-32 1 -39 -3 -47 -25 -13 -32 -12 -37 0 -29 6 3 13
-2 17 -12 3 -10 19 -32 36 -50 21 -22 31 -45 34 -77 6 -48 -19 -208 -43 -285
-15 -49 -19 -123 -5 -86 5 11 14 50 21 87 8 37 17 65 22 62 4 -3 8 0 8 7 0 7
3 10 6 6 3 -3 17 6 30 20 20 22 25 23 30 9 5 -13 9 -13 25 7 18 22 18 22 19 1
0 -47 140 -167 172 -148 13 9 7 -54 -22 -226 -18 -101 -23 -181 -27 -417 -7
-349 3 -476 58 -768 49 -255 59 -296 70 -289 5 3 6 -2 3 -11 -12 -30 72 -302
158 -510 46 -113 135 -290 226 -450 21 -38 53 -80 71 -92 17 -11 27 -23 21
-25 -5 -2 -4 -13 5 -28 7 -14 21 -38 29 -55 9 -16 40 -60 69 -96 29 -37 60
-77 69 -90 16 -24 16 -24 37 -5 22 20 22 20 56 -20 19 -21 35 -44 35 -49 0 -6
12 -24 28 -41 15 -17 34 -41 42 -54 53 -79 477 -495 558 -547 15 -10 80 -56
144 -103 274 -199 447 -302 676 -403 45 -21 117 -53 160 -72 43 -19 111 -46
152 -60 83 -28 409 -122 535 -154 175 -44 620 -91 860 -91 143 0 440 22 530
40 28 5 86 14 130 20 98 14 277 48 327 62 22 7 35 15 31 22 -3 6 -3 8 1 4 10
-8 215 46 285 76 31 14 110 46 176 72 141 54 191 79 425 205 284 153 534 336
754 550 43 42 81 78 85 80 3 2 5 7 3 12 -1 4 9 12 24 17 14 6 22 14 19 20 -3
5 -2 10 4 10 16 0 223 228 313 346 98 128 263 385 320 498 32 65 58 119 56
120 -2 1 -14 7 -28 14 -14 6 -70 41 -125 77 -166 108 -403 245 -424 245 -4 0
-28 -39 -52 -87 -50 -100 -199 -326 -297 -453 -79 -101 -219 -265 -256 -300
-15 -13 -36 -39 -47 -57 -12 -18 -26 -33 -32 -33 -12 -1 -25 -11 -119 -92 -94
-82 -261 -208 -316 -239 -31 -18 -77 -46 -102 -63 -25 -17 -106 -65 -180 -106
-74 -42 -144 -81 -155 -87 -24 -14 -251 -103 -262 -103 -18 0 -112 -44 -107
-51 5 -9 -34 -22 -146 -49 -103 -24 -124 -24 -50 0 l55 18 -52 1 c-57 1 -70
15 -25 26 15 3 63 19 107 35 44 16 134 48 200 71 160 56 477 210 617 299 179
115 182 118 316 228 70 58 128 106 129 106 1 1 -80 86 -181 189 l-182 188 -35
-32 c-130 -122 -428 -315 -623 -404 -173 -79 -445 -165 -518 -165 -49 1 -27
10 183 81 228 77 396 148 525 224 169 99 434 296 434 323 0 3 -51 58 -112 122
-115 117 -108 113 41 -23 46 -42 89 -77 96 -77 16 0 87 76 225 240 141 168
253 332 327 474 l51 101 -81 84 c-146 152 -181 186 -267 264 -46 42 -81 79
-77 83 4 4 58 -42 119 -103 62 -61 159 -152 215 -202 l102 -92 40 83 c22 46
65 159 97 252 32 93 60 164 62 157 13 -38 -53 -261 -124 -424 -19 -43 -34 -80
-34 -82 0 -7 97 -67 185 -114 74 -41 199 -114 253 -149 22 -14 23 -13 73 94
105 222 212 598 260 909 11 77 23 142 25 144 2 3 9 0 15 -6 22 -22 -22 -342
-72 -533 -50 -188 -143 -439 -215 -582 -13 -26 -24 -50 -24 -53 0 -2 30 -20
68 -39 37 -19 131 -74 209 -123 79 -48 180 -110 225 -136 l82 -48 19 23 c29
37 72 125 122 253 26 66 55 140 65 165 43 106 138 481 175 690 15 91 42 414
50 620 13 347 17 407 28 432 8 18 14 23 19 15 4 -7 6 2 3 18 -2 17 -6 59 -9
94 -5 53 -4 62 9 57 16 -6 65 15 136 57 76 45 79 41 104 -153 32 -244 44 -646
25 -845 -47 -492 -205 -1101 -374 -1442 -20 -40 -36 -74 -36 -76 0 -3 -40 -81
-90 -174 -133 -251 -344 -568 -487 -731 -27 -31 -91 -104 -140 -162 -277 -322
-598 -584 -1003 -821 -61 -36 -71 -44 -52 -47 14 -2 29 4 38 15 13 16 13 16 8
1 -3 -10 -1 -18 5 -18 6 0 11 7 11 15 0 9 9 15 25 15 14 0 25 5 25 12 0 6 9 3
21 -8 15 -14 20 -15 17 -4 -2 10 5 15 20 14 12 0 21 4 19 10 -4 11 41 56 55
56 4 0 10 -4 13 -10 10 -16 55 20 56 44 0 11 3 15 6 9 9 -24 20 -13 15 15 -2
17 2 33 12 41 13 11 16 9 22 -14 7 -26 29 -30 29 -4 0 8 9 13 20 12 10 -1 27
7 36 18 9 10 21 19 26 19 5 0 18 8 29 18 10 10 40 32 66 50 26 18 53 42 59 53
6 11 13 18 16 15 11 -11 33 16 34 43 1 17 3 20 6 9 6 -22 17 -23 33 -3 7 8 9
15 5 15 -15 0 19 31 51 46 18 9 32 20 31 25 -1 5 9 15 23 22 14 8 24 19 22 26
-1 7 2 10 8 6 5 -3 10 -1 10 4 0 6 5 11 12 11 20 0 333 323 397 410 34 47 70
94 80 105 10 11 48 58 86 105 89 112 98 120 40 35 -192 -279 -479 -597 -753
-832 -141 -122 -438 -335 -559 -403 -24 -13 -41 -25 -39 -28 4 -3 50 21 193
100 24 12 43 29 43 36 0 6 11 12 24 12 21 0 113 62 141 94 6 7 18 15 28 19 9
3 16 12 15 19 -2 7 5 12 15 12 9 -1 17 3 17 10 0 6 23 29 51 51 116 92 375
333 372 346 -2 5 3 9 10 9 15 0 111 99 141 145 11 16 30 41 44 55 13 14 56 67
94 118 39 50 74 92 79 92 5 0 8 3 7 8 -4 14 55 92 65 85 6 -3 7 -1 3 5 -4 7
-2 12 5 12 7 0 10 3 6 6 -3 4 4 21 17 38 12 17 33 49 45 71 23 39 23 40 1 15
-19 -22 -20 -23 -11 -3 6 12 19 27 29 32 9 6 13 11 7 11 -6 0 -5 4 1 8 7 4 39
52 72 108 34 55 78 120 99 145 47 54 118 165 128 199 4 14 22 53 41 87 19 34
34 66 34 73 0 6 11 35 24 63 13 29 37 93 54 142 16 50 39 113 50 140 11 28 25
79 32 115 6 36 21 85 32 110 20 43 25 63 46 196 6 34 18 76 27 95 26 50 69
360 87 632 9 148 9 175 -5 220 -9 29 -28 126 -43 217 -22 140 -25 185 -20 295
8 189 9 256 2 262 -3 4 -6 -4 -6 -17 l0 -23 -20 23 c-11 13 -20 29 -20 35 0 7
-9 15 -20 18 -11 3 -18 1 -14 -4 3 -5 1 -9 -4 -9 -6 0 -13 7 -16 16 -5 12 -13
14 -32 10 -23 -6 -25 -5 -19 11 5 10 9 30 9 45 1 31 16 51 16 20 0 -11 5 -24
10 -27 6 -3 10 -1 10 6 0 8 5 7 17 -2 15 -12 16 -12 11 8 -3 12 -1 24 5 26 7
2 2 16 -11 34 -12 17 -22 35 -22 41 0 5 -6 15 -14 21 -24 20 -27 53 -5 58 13
4 19 14 19 34 0 18 6 32 15 36 9 3 24 22 35 43 10 20 31 51 45 68 28 33 27 72
-1 72 -8 0 -13 -4 -9 -9 3 -5 -3 -16 -13 -23 -10 -7 -44 -46 -75 -85 -32 -40
-86 -96 -120 -124 -34 -28 -97 -80 -140 -116 -43 -37 -95 -78 -117 -92 -21
-14 -78 -53 -126 -85 -48 -33 -106 -66 -128 -73 -33 -12 -166 -15 -703 -16
-364 -1 -672 1 -685 5 -13 3 134 6 326 7 192 1 347 3 345 5 -2 2 -179 6 -393
9 -313 4 -390 8 -397 18 -4 8 -24 59 -44 114 -50 133 -90 222 -148 328 -27 49
-46 91 -43 94 3 4 50 7 103 8 54 1 300 6 546 10 l449 8 -6 31 c-9 46 -188 399
-249 491 -175 264 -222 324 -427 544 -89 96 -261 255 -357 329 -75 58 -310
210 -380 245 -229 116 -526 229 -728 277 -332 81 -616 103 -1000 80z m251
-284 c14 -33 28 -79 31 -103 3 -24 9 -45 13 -48 4 -2 69 -9 144 -14 76 -5 141
-12 144 -16 3 -3 -3 -14 -14 -25 -30 -30 -196 -140 -211 -140 -18 0 -18 1 23
-109 44 -116 65 -191 54 -191 -5 0 -12 10 -16 22 -6 19 -213 234 -218 226 -60
-87 -178 -209 -235 -243 -33 -19 13 138 82 283 10 20 8 26 -13 43 -27 20 -45
25 -35 9 13 -21 -22 -9 -70 24 -28 19 -71 47 -97 62 -27 15 -48 31 -48 36 0 4
24 8 53 8 51 1 177 14 227 25 23 5 30 18 59 108 18 56 43 124 54 152 l21 50
14 -50 c7 -28 24 -77 38 -109z m494 -361 c163 -33 469 -123 498 -147 9 -8 21
-4 44 18 l32 29 -17 -27 c-9 -15 -17 -32 -17 -38 0 -6 25 -26 56 -46 31 -20
53 -38 50 -41 -9 -9 -51 6 -90 32 -41 28 -36 33 -67 -63 -10 -31 -18 -48 -18
-37 -1 12 8 47 20 79 16 48 18 61 7 67 -7 5 -83 31 -168 58 -164 53 -303 88
-462 116 -54 10 -98 21 -98 25 0 14 13 20 34 15 12 -2 100 -20 196 -40z m1185
-54 c30 -11 68 -29 85 -41 24 -17 28 -25 20 -40 -5 -10 -7 -47 -4 -82 4 -41 2
-58 -4 -50 -7 11 -11 8 -16 -11 -10 -43 -84 -126 -131 -148 -24 -11 -49 -27
-56 -35 -6 -8 -20 -14 -31 -14 -11 0 -29 -5 -41 -12 -37 -19 -228 -11 -283 12
-25 11 -54 20 -64 20 -24 0 -30 20 -23 82 16 143 163 298 320 338 52 13 163 4
228 -19z m-701 -496 c5 -41 4 -45 -4 -20 -5 17 -12 75 -14 130 -5 99 -5 99 3
20 5 -44 11 -102 15 -130z m-961 135 c74 -7 93 -13 113 -34 27 -27 62 -27 76
-1 21 37 196 2 483 -96 235 -80 377 -162 630 -364 312 -249 508 -522 636 -886
111 -317 147 -701 93 -1004 -31 -176 -116 -448 -154 -490 -9 -11 -38 -61 -64
-110 -67 -132 -202 -322 -328 -461 -77 -85 -34 -51 68 53 120 123 125 110 7
-18 -43 -47 -94 -103 -113 -125 -59 -67 -231 -217 -317 -276 -72 -50 -288
-158 -314 -158 -5 0 -40 -15 -77 -34 -37 -18 -106 -47 -154 -64 -73 -26 -88
-29 -98 -17 -16 19 -7 30 46 55 34 17 43 25 32 32 -9 7 -6 8 11 4 17 -3 45 6
88 29 34 19 67 35 72 35 6 0 30 14 54 30 25 17 57 30 71 30 14 0 26 4 26 9 0
5 9 13 21 16 12 4 58 44 103 89 44 45 105 98 134 118 58 39 204 177 287 273
73 84 195 256 255 360 28 48 59 99 70 113 11 13 20 31 20 38 0 17 -29 46 -40
39 -5 -3 -56 -6 -114 -6 -119 -2 -147 -18 -33 -20 39 -1 86 -5 102 -9 17 -4
-78 -8 -211 -9 l-241 -1 -33 -92 c-40 -116 -103 -241 -174 -348 -31 -45 -56
-84 -56 -85 0 -1 51 -4 113 -7 63 -3 121 -9 131 -15 15 -8 15 -11 -4 -28 -26
-24 -134 -44 -237 -45 -73 0 -82 -2 -88 -20 -9 -28 -71 -98 -146 -166 -86 -76
-270 -214 -287 -214 -8 0 42 44 110 99 67 54 153 130 189 168 71 75 134 161
126 170 -3 2 -20 -6 -37 -18 -24 -18 -33 -21 -39 -11 -6 11 -39 11 -170 2 -88
-6 -165 -9 -170 -5 -5 3 -13 -5 -16 -17 -18 -61 -199 -336 -227 -347 -13 -4
-6 8 37 69 18 25 58 95 91 155 32 61 68 125 81 144 31 45 31 66 1 49 -13 -7
-29 -21 -36 -30 -12 -16 -35 -18 -228 -18 l-214 0 0 -97 c0 -54 -5 -105 -10
-113 -6 -10 -7 38 -3 134 l6 150 -22 -21 c-13 -12 -21 -26 -17 -31 9 -15 -73
-22 -250 -22 -170 0 -175 -1 -153 -42 18 -34 3 -30 -23 7 -20 28 -24 43 -19
68 6 29 11 33 51 39 25 4 69 4 98 1 29 -3 109 -2 177 2 l125 7 0 265 c0 238
-2 265 -16 259 -9 -3 -146 -6 -305 -6 l-290 0 7 -37 c4 -21 19 -88 34 -150 28
-114 25 -143 -5 -53 -16 49 -34 73 -21 28 4 -13 16 -54 26 -93 26 -98 46 -167
55 -190 6 -14 5 -17 -3 -10 -21 20 -132 416 -132 473 l0 30 -254 7 c-280 8
-317 5 -309 -26 5 -18 3 -19 -20 -8 -16 7 -23 17 -20 26 3 7 2 13 -3 12 -5 -1
-11 -1 -14 0 -3 1 -104 2 -225 4 -174 2 -229 6 -262 18 -24 9 -43 15 -43 14 0
-34 185 -342 268 -445 34 -43 132 -145 218 -227 171 -163 344 -286 481 -343
41 -17 130 -57 196 -87 67 -31 128 -56 135 -56 16 0 16 -41 0 -55 -9 -7 -30
-3 -73 14 -33 14 -85 32 -115 41 -128 37 -373 157 -522 257 -96 64 -296 256
-384 369 -110 141 -229 321 -273 414 -40 83 -35 84 -133 -4 -35 -32 -113 -100
-171 -151 -59 -51 -107 -97 -107 -103 0 -6 12 -2 28 9 52 37 310 164 324 160
10 -4 -333 -185 -359 -190 -14 -2 -92 -63 -93 -71 0 -4 11 -24 24 -45 13 -21
38 -67 56 -102 83 -167 260 -404 457 -613 l55 -57 56 49 c32 27 82 75 112 106
30 31 91 85 135 118 80 61 80 61 47 20 -18 -23 -88 -92 -155 -152 -67 -61
-132 -122 -144 -135 l-21 -26 71 -60 c164 -139 397 -285 605 -379 121 -54 414
-155 510 -174 56 -12 92 -30 92 -48 0 -14 -69 2 -251 57 -224 68 -300 98 -477
190 -206 107 -545 339 -566 387 -3 8 -9 7 -18 -3 -7 -9 -51 -49 -98 -89 -80
-69 -280 -260 -280 -267 0 -8 176 -149 275 -219 151 -108 255 -168 500 -290
347 -171 706 -283 1027 -319 147 -17 183 -27 211 -57 17 -19 17 -19 -36 -19
-29 0 -78 4 -108 10 -30 5 -115 19 -189 31 -215 33 -546 134 -751 227 -243
111 -405 201 -634 350 -251 164 -592 501 -787 778 -67 95 -198 306 -250 403
l-18 32 -22 -21 c-13 -12 -52 -37 -88 -57 -36 -20 -151 -90 -257 -155 -105
-65 -194 -118 -197 -118 -3 0 -6 7 -6 14 0 20 45 52 155 113 69 38 386 226
403 239 2 1 -11 33 -28 70 -127 278 -209 561 -250 864 -23 165 -38 459 -26
505 13 53 26 10 33 -106 l6 -115 68 0 c41 0 74 -5 81 -12 9 -9 -2 -12 -52 -13
-36 -1 -73 0 -83 1 -21 2 -21 -3 8 -220 22 -165 62 -341 121 -540 28 -93 124
-325 156 -378 18 -29 22 -31 37 -19 9 8 41 27 71 42 30 15 84 44 120 65 36 20
104 59 152 86 48 27 90 55 93 62 2 6 -16 66 -40 131 -76 202 -121 381 -113
447 2 20 16 -18 42 -116 33 -122 85 -278 135 -402 10 -26 31 -39 31 -19 0 5
33 33 73 62 39 29 99 78 132 109 75 68 246 206 262 211 8 3 -2 37 -32 109
-107 250 -124 336 -132 635 -7 334 9 435 129 790 39 115 149 320 241 448 91
126 269 318 367 395 251 196 536 335 889 433 190 53 356 68 534 49z m1204
-202 c11 -13 26 -34 33 -47 7 -13 30 -43 52 -67 34 -37 37 -44 21 -44 -52 0
-169 124 -144 153 6 8 8 17 4 20 -3 4 -2 7 4 7 5 0 19 -10 30 -22z m633 -10
c0 -41 -73 -113 -141 -142 -68 -28 -129 -30 -179 -4 -71 37 -71 37 72 102 96
44 248 70 248 44z m-6092 -983 c-3 -4 -16 9 -28 27 l-23 33 28 -27 c16 -15 26
-30 23 -33z m28 -39 c-3 -14 -11 -26 -17 -26 -7 0 -9 9 -5 23 3 12 6 29 6 37
0 10 3 11 11 3 7 -7 9 -23 5 -37z m2087 -313 c-7 -2 -21 -2 -30 0 -10 3 -4 5
12 5 17 0 24 -2 18 -5z m5427 -93 c-26 -63 -93 -157 -168 -234 -82 -85 -74
-84 22 1 33 29 61 51 63 49 19 -19 -170 -199 -255 -244 -34 -18 -92 -39 -129
-47 -73 -16 -274 -18 -538 -5 -146 6 -147 7 -55 10 l95 4 -95 5 -95 6 -22 170
c-12 94 -31 201 -42 240 -11 38 -17 72 -14 75 7 8 1227 16 1237 8 5 -4 3 -20
-4 -38z m-5438 34 c3 -3 -1 -26 -8 -52 -16 -52 -44 -297 -44 -384 l0 -58 -252
-2 -253 -2 230 -6 230 -5 -339 -8 c-307 -7 -343 -6 -386 9 -26 9 -58 26 -71
36 -22 18 -22 18 -2 9 49 -24 43 -9 -8 22 -104 63 -192 140 -271 239 -55 68
-114 181 -103 198 6 10 1266 15 1277 4z m-1433 -528 c47 -48 49 -71 6 -82 -28
-7 -31 -20 -10 -48 36 -48 1 -71 -46 -32 l-32 27 -19 -21 c-10 -11 -23 -20
-28 -20 -17 0 -37 40 -32 65 4 21 10 25 38 25 19 0 34 5 34 10 0 6 -16 10 -35
10 -30 0 -35 3 -35 24 0 29 63 86 95 86 12 0 40 -20 64 -44z m7196 19 c28 -27
32 -45 10 -45 -19 0 -19 -19 0 -44 22 -28 18 -63 -7 -80 -30 -21 -131 -22
-151 -1 -17 16 -12 48 9 66 23 19 17 39 -12 39 -37 0 -29 38 15 67 47 32 104
31 136 -2z m-5889 -63 l81 -2 7 -102 c3 -60 18 -151 35 -216 24 -93 27 -114
15 -119 -7 -3 -49 3 -91 13 l-78 18 45 6 45 5 -50 13 c-65 17 -163 84 -256
175 -74 72 -156 188 -145 206 5 8 77 8 392 3z m4804 -7 c0 -37 -59 -126 -134
-204 -52 -55 -66 -73 -39 -51 24 18 45 31 48 28 3 -3 -9 -25 -28 -49 -33 -44
-106 -99 -162 -124 -41 -17 -135 -26 -171 -15 -28 8 -28 8 11 9 53 2 90 12 75
21 -9 5 -9 27 -1 84 15 105 14 259 -1 274 -6 6 -9 15 -5 18 12 12 121 21 265
23 121 1 142 -1 142 -14z m-3826 -768 c13 -29 28 -66 32 -82 8 -36 52 -123 66
-131 6 -4 5 4 -2 16 -6 12 -9 24 -6 28 3 3 6 0 6 -6 0 -7 3 -11 8 -11 18 3 21
-3 11 -28 -8 -23 -6 -30 16 -50 30 -28 31 -32 8 -29 -31 4 -197 346 -169 346
3 0 16 -24 30 -53z m-2155 -98 c33 -12 43 -45 16 -55 -8 -4 -15 -12 -15 -19 0
-7 7 -18 15 -25 20 -17 19 -64 -2 -81 -22 -19 -141 -15 -161 5 -20 19 -8 34
33 42 49 9 52 21 15 53 -28 23 -31 30 -22 48 7 11 29 25 49 31 21 5 38 10 39
11 1 1 15 -4 33 -10z m6925 -12 c14 -10 17 -21 11 -45 -3 -18 -13 -32 -21 -32
-21 0 -17 -18 6 -30 25 -13 28 -65 4 -74 -27 -10 -108 -6 -134 7 -55 28 -25
71 34 49 40 -15 56 1 17 17 -42 18 -63 45 -59 77 2 20 10 30 28 35 42 12 95
10 114 -4z m-1314 -92 c14 -8 21 -14 15 -14 -5 0 -21 6 -35 14 -14 8 -20 14
-15 14 6 0 21 -6 35 -14z m-3280 -68 c17 -28 40 -64 52 -79 12 -15 19 -30 16
-33 -3 -3 -26 26 -52 65 -26 39 -51 68 -55 65 -5 -2 -12 2 -15 11 -4 10 -2 13
6 8 8 -5 9 -2 5 10 -13 32 12 6 43 -47z m138 -164 c15 -2 110 -5 212 -7 l185
-3 9 -25 c17 -48 2 -62 -57 -54 -28 3 -112 6 -184 6 -93 0 -132 3 -130 11 2
12 0 13 -87 28 -42 8 -80 7 -135 -2 l-76 -12 60 -6 c51 -5 45 -6 -42 -7 -112
-2 -153 10 -187 55 l-18 25 193 -3 c146 -2 194 0 197 9 3 10 7 10 18 1 8 -6
27 -14 42 -16z m550 -315 c35 -50 41 -68 17 -48 -19 15 -101 160 -110 192 -3
13 9 -4 27 -38 18 -33 48 -81 66 -106z m-358 22 c5 -9 48 -50 95 -90 47 -40
84 -75 81 -77 -8 -9 -99 59 -171 128 -61 58 -66 66 -42 62 15 -3 32 -13 37
-23z m2101 -58 c-18 -35 -124 -178 -173 -234 -87 -101 -307 -290 -441 -380
-72 -48 -134 -84 -137 -81 -3 3 3 10 14 17 10 6 71 47 135 91 140 97 403 349
524 503 78 99 98 121 78 84z m-1310 -62 c47 -5 110 -18 140 -28 68 -24 176
-93 209 -135 13 -17 20 -28 14 -24 -8 4 -14 -16 -18 -64 -4 -38 -12 -84 -18
-102 -13 -44 -41 -97 -50 -97 -3 0 -10 -10 -14 -22 -9 -28 -93 -118 -110 -118
-8 0 -14 -4 -14 -9 0 -5 -12 -16 -27 -23 -16 -8 -38 -20 -50 -26 -50 -26 -62
-31 -94 -36 -19 -3 -47 -9 -64 -12 -71 -13 -241 -16 -332 -4 -96 12 -203 49
-203 71 0 6 -4 8 -9 4 -5 -3 -13 21 -17 52 -14 115 62 316 153 405 97 95 246
159 408 177 6 0 49 -4 96 -9z m-3641 -75 c25 -28 35 -65 18 -65 -13 0 -42 54
-53 100 -5 23 -5 23 6 5 6 -11 20 -29 29 -40z m4025 -45 c-3 -5 -14 -10 -23
-10 -15 0 -15 2 -2 10 20 13 33 13 25 0z m98 -669 c-8 -33 -86 -151 -132 -200
-70 -73 -104 -91 -208 -112 -122 -25 -225 -21 -301 11 l-53 23 41 39 c23 21
46 38 51 38 6 0 42 15 82 34 40 19 99 44 132 56 33 12 92 35 130 51 39 16 76
29 83 29 6 0 12 5 12 10 0 6 8 10 18 10 9 1 42 14 72 29 62 33 84 27 73 -18z
m1872 -82 c28 -29 41 -47 30 -39 -31 22 -138 122 -160 150 -29 37 71 -49 130
-111z m-4735 77 c0 -2 -31 -32 -70 -66 -38 -34 -70 -58 -70 -52 0 5 30 35 68
66 68 56 72 59 72 52z m-175 -156 c-18 -20 -45 -27 -45 -12 0 15 24 32 44 32
18 0 19 -1 1 -20z m4513 -224 c-2 -12 -24 -32 -54 -50 -28 -17 -66 -43 -85
-57 l-34 -26 17 -37 c10 -20 22 -36 28 -36 5 0 32 16 59 35 26 19 53 35 59 35
12 0 42 -39 42 -55 0 -5 -27 -28 -59 -50 l-59 -40 16 -27 c9 -16 19 -28 23
-28 11 0 132 70 152 88 18 16 20 15 43 -13 13 -17 24 -33 24 -37 0 -4 -24 -23
-52 -41 -160 -102 -189 -119 -201 -114 -8 3 -39 49 -70 104 -31 54 -77 129
-102 168 l-46 70 27 20 c14 11 74 50 133 87 l106 66 18 -21 c10 -11 17 -29 15
-41z m-3858 -24 c0 -15 -7 -69 -15 -121 -9 -52 -14 -95 -12 -97 5 -5 117 50
171 84 48 31 49 31 79 14 16 -9 31 -23 34 -30 3 -7 -13 -36 -35 -65 -22 -28
-64 -92 -92 -142 -48 -84 -86 -135 -99 -135 -3 0 -21 9 -40 21 l-33 20 20 22
c29 31 123 170 118 174 -2 2 -26 -9 -52 -25 -55 -33 -171 -78 -180 -69 -5 5
15 122 32 185 11 37 -9 25 -53 -36 -23 -31 -56 -70 -73 -87 l-30 -29 -22 22
c-31 30 -27 37 143 247 22 28 49 62 60 77 20 27 21 27 50 13 21 -12 29 -23 29
-43z m1847 -209 c-3 -10 -5 -2 -5 17 0 19 2 27 5 18 2 -10 2 -26 0 -35z m1562
11 c46 -9 59 -39 30 -70 -19 -20 -29 -23 -60 -18 -49 8 -89 -15 -89 -51 0 -14
6 -25 13 -26 6 0 55 0 107 1 111 1 126 -3 145 -41 30 -57 7 -129 -60 -187 -31
-27 -43 -32 -89 -32 -66 0 -108 27 -90 57 8 14 28 19 78 23 67 5 96 22 96 56
0 33 -27 41 -122 36 -90 -4 -95 -4 -126 23 -28 23 -32 33 -32 73 1 113 85 179
199 156z m-2962 -41 l28 -28 -57 -113 c-32 -62 -58 -125 -58 -141 0 -32 23
-56 69 -72 51 -18 78 9 134 137 26 60 55 117 65 127 17 17 19 17 40 -6 l22
-23 -44 -99 c-71 -165 -97 -201 -160 -225 -42 -16 -113 10 -162 61 -36 37 -39
44 -39 97 0 45 8 75 38 138 38 84 86 174 92 174 2 0 16 -12 32 -27z m2567
-157 c42 -17 80 -70 80 -111 0 -17 -9 -49 -20 -70 l-21 -39 56 -36 c57 -37 88
-67 79 -76 -3 -2 -28 -7 -55 -11 -48 -5 -53 -3 -103 36 -28 22 -56 41 -62 41
-8 0 -46 -17 -56 -25 -2 -2 9 -26 25 -53 31 -56 27 -68 -23 -78 -30 -6 -32 -4
-58 58 -16 34 -44 108 -63 163 -19 55 -44 112 -55 127 -22 32 -29 27 87 62 93
28 142 32 189 12z m-2104 -21 c11 -13 7 -38 -24 -143 -53 -184 -55 -172 34
-203 l75 -25 -2 -39 c-2 -21 -5 -40 -8 -43 -12 -12 -255 72 -255 89 0 5 25 87
56 182 31 94 57 178 60 185 5 17 49 15 64 -3z m1680 -101 c7 -19 10 -37 8 -40
-2 -2 -40 -9 -84 -15 -43 -7 -83 -16 -88 -20 -5 -4 -5 -24 -2 -44 l7 -36 58 7
c46 5 61 3 74 -11 34 -33 11 -54 -68 -62 l-57 -6 6 -35 c3 -19 9 -39 14 -44 4
-4 48 -1 97 7 84 15 90 15 102 -1 30 -40 3 -62 -97 -79 -47 -8 -100 -19 -119
-25 -19 -5 -38 -7 -42 -4 -16 10 -31 88 -39 213 -5 69 -12 135 -15 147 -6 20
1 23 88 43 52 12 103 28 113 36 24 17 30 13 44 -31z m-1236 7 l111 -16 3 -39
c2 -21 0 -42 -5 -47 -4 -4 -28 -4 -53 1 -25 4 -47 6 -49 4 -3 -2 -15 -68 -28
-147 -12 -78 -25 -148 -28 -154 -2 -7 -17 -13 -32 -13 -57 0 -57 4 -24 171 16
84 28 155 26 157 -1 2 -28 6 -59 9 -55 6 -56 6 -56 39 0 56 8 65 47 58 20 -4
86 -14 147 -23z m3296 5 c0 -3 -4 -8 -10 -11 -5 -3 -10 -1 -10 4 0 6 5 11 10
11 6 0 10 -2 10 -4z m-2966 -52 c10 -4 13 -14 10 -33 -3 -14 -9 -103 -12 -196
l-7 -170 -34 2 c-18 0 -38 6 -43 11 -13 13 8 346 23 374 10 18 34 23 63 12z
m501 -11 c-17 -38 -65 -192 -86 -273 -30 -116 -34 -122 -72 -118 -27 3 -37 12
-69 68 -21 36 -52 101 -68 145 -17 44 -41 104 -55 133 l-25 52 35 0 c33 0 35
-2 100 -125 37 -69 70 -123 75 -120 4 3 11 17 15 32 3 16 20 58 36 95 16 36
29 77 29 91 0 32 7 37 53 37 33 0 38 -3 32 -17z m2044 -246 c-2 -1 -13 -9 -24
-17 -19 -14 -19 -14 -6 3 7 9 18 17 24 17 6 0 8 -1 6 -3z"/>
<path d="M5176 7504 c-11 -16 -55 -72 -99 -124 l-80 -95 82 80 c96 93 124 129
119 152 -2 13 -7 10 -22 -13z"/>
<path d="M5151 6975 c-83 -37 -234 -169 -214 -189 18 -18 75 2 167 58 36 22
41 23 63 9 l23 -15 0 76 c0 42 -1 76 -2 76 -2 -1 -18 -7 -37 -15z"/>
<path d="M5240 6962 c0 -16 3 -63 6 -105 8 -90 28 -104 38 -28 l6 50 28 -15
c15 -7 33 -14 41 -14 8 0 39 -14 69 -31 30 -17 56 -28 59 -26 10 10 -172 167
-193 167 -7 0 -14 7 -18 15 -10 27 -36 17 -36 -13z"/>
<path d="M5010 6961 c-19 -10 -51 -22 -70 -26 -19 -4 -53 -16 -74 -26 -22 -11
-45 -19 -50 -19 -6 0 -22 -9 -36 -20 -14 -11 -31 -20 -37 -20 -7 0 -36 -17
-65 -37 -45 -33 -49 -38 -30 -41 25 -4 161 32 200 52 24 12 182 125 207 147
16 16 -9 10 -45 -10z"/>
<path d="M5445 6931 c17 -10 48 -37 70 -60 21 -22 47 -41 57 -41 10 0 48 -11
84 -25 37 -14 91 -28 122 -32 37 -4 63 -14 81 -30 l26 -24 -137 4 -137 4 39
-45 c44 -49 127 -213 160 -313 l21 -64 220 3 c164 2 219 6 219 15 0 50 -233
310 -350 390 -30 21 -86 60 -125 88 -38 27 -93 60 -120 73 -63 30 -209 76
-238 76 -20 0 -19 -2 8 -19z m280 -99 c-3 -3 -11 0 -18 7 -9 10 -8 11 6 5 10
-3 15 -9 12 -12z m430 -448 c9 -15 12 -23 6 -20 -11 7 -35 46 -28 46 3 0 12
-12 22 -26z m70 -14 c10 -11 16 -20 13 -20 -3 0 -13 9 -23 20 -10 11 -16 20
-13 20 3 0 13 -9 23 -20z"/>
<path d="M5790 6872 c74 -44 152 -93 172 -109 20 -15 54 -39 74 -53 20 -14 48
-36 61 -50 42 -42 163 -208 207 -284 l43 -71 89 -6 c49 -4 135 -9 192 -11
l103 -5 -19 21 c-38 42 -33 50 6 9 38 -41 61 -56 46 -30 -45 75 -299 303 -424
382 -217 136 -390 210 -665 281 -11 3 41 -31 115 -74z"/>
<path d="M4730 6926 c-25 -7 -65 -18 -90 -24 -25 -6 -62 -18 -82 -26 -21 -9
-39 -16 -40 -16 -2 0 -28 -8 -58 -18 -75 -26 -204 -93 -330 -170 -58 -36 -114
-70 -125 -77 -32 -19 -236 -201 -284 -253 -154 -166 -349 -494 -396 -667 -82
-299 -96 -378 -99 -547 -1 -96 1 -112 14 -109 8 2 135 6 281 9 l266 4 6 162
c3 95 14 206 26 271 11 61 21 123 21 139 l0 29 -251 -8 -251 -7 4 23 c3 21 9
24 48 27 49 4 77 22 83 56 3 14 5 10 6 -11 1 -28 5 -33 26 -33 19 0 25 5 25
20 0 18 4 20 33 15 32 -6 34 -5 48 37 7 24 13 48 11 54 -1 7 7 14 18 17 25 7
26 29 1 51 -21 20 -18 46 6 46 10 0 14 7 10 20 -3 13 0 20 9 20 24 0 16 38 -8
42 -17 2 -24 11 -26 30 -3 21 0 26 11 22 10 -3 18 5 25 23 21 59 27 61 175 68
122 7 137 6 137 -9 0 -9 3 -16 8 -16 11 1 52 70 55 94 2 21 1 21 -190 17 -144
-3 -193 -1 -193 8 0 13 59 41 87 41 56 0 92 24 198 128 142 139 332 265 545
362 52 24 115 57 140 74 25 17 72 45 105 63 65 35 64 38 -5 19z m-1119 -919
c-10 -9 -11 -8 -5 6 3 10 9 15 12 12 3 -3 0 -11 -7 -18z"/>
<path d="M4573 6730 c-86 -19 -403 -344 -403 -412 0 -12 8 -18 25 -18 40 0 69
19 99 66 40 64 219 237 277 269 37 20 69 28 127 32 62 4 80 9 94 27 10 11 18
23 18 26 0 3 -38 4 -84 2 -47 -2 -93 1 -103 6 -10 5 -33 6 -50 2z"/>
<path d="M5249 6708 c-3 -55 2 -403 5 -406 2 -1 11 1 20 4 16 6 17 21 10 182
-6 168 -6 174 12 168 11 -3 65 -6 122 -7 65 -1 102 -6 103 -13 1 -6 0 -21 -1
-33 -2 -27 8 -45 21 -38 5 4 5 14 -1 26 -7 12 -7 19 -1 19 12 0 35 -40 24 -40
-4 0 1 -7 12 -16 17 -13 18 -16 5 -24 -12 -8 -10 -10 9 -10 19 0 23 -4 19 -25
-3 -14 -1 -25 3 -25 5 0 9 -12 9 -27 0 -20 3 -24 9 -14 7 11 10 9 16 -9 5 -17
9 -19 15 -9 5 7 4 22 -3 33 -6 12 -12 27 -13 35 -2 12 -31 62 -80 136 -10 16
-13 26 -7 22 16 -10 98 -151 137 -235 20 -41 32 -58 38 -50 6 10 8 8 8 -4 0
-9 5 -20 10 -23 32 -20 -71 214 -137 311 -66 96 -63 95 -194 92 -63 -2 -126 0
-141 5 -26 7 -28 5 -29 -25z m441 -229 c12 -23 20 -43 18 -45 -3 -2 -14 17
-26 41 -27 56 -20 60 8 4z"/>
<path d="M4865 6714 c-48 -54 -195 -355 -195 -401 0 -10 9 -13 28 -11 24 3 35
18 98 145 39 79 82 159 95 178 l24 35 138 0 137 0 0 30 0 30 -117 0 c-65 0
-134 3 -154 6 -28 5 -41 2 -54 -12z"/>
<path d="M5250 5968 l0 -296 28 7 c15 5 26 13 25 20 -2 6 1 11 7 11 6 0 10 -3
10 -7 0 -11 536 -10 546 0 13 12 6 71 -27 227 -17 80 -32 161 -35 180 -4 31
-3 32 7 14 6 -12 28 -107 49 -210 21 -104 38 -178 39 -165 2 41 -61 350 -94
463 l-15 53 -270 0 -270 0 0 -297z m340 203 c63 -1 81 -4 68 -12 -10 -5 -18
-17 -18 -24 0 -8 -4 -15 -8 -15 -5 0 -14 -10 -20 -22 l-11 -23 0 23 c-1 27
-21 30 -21 2 0 -11 -4 -20 -10 -20 -5 0 -10 -16 -10 -35 0 -24 -5 -35 -14 -35
-8 0 -21 -3 -30 -6 -12 -4 -16 0 -16 15 0 12 -4 21 -10 21 -5 0 -10 -7 -10
-15 0 -8 -6 -15 -12 -15 -9 0 -8 -4 2 -10 12 -8 10 -10 -10 -11 -14 -1 -34 -2
-45 -1 -11 0 -14 -2 -7 -4 16 -7 15 -24 -2 -24 -8 0 -13 -8 -12 -17 0 -10 -7
-19 -19 -21 -16 -2 -17 -1 -5 7 22 15 0 45 -35 49 -27 4 -28 3 -22 -37 5 -40
-5 -56 -17 -25 -3 9 -6 71 -6 139 l0 122 108 -2 c59 -1 145 -2 192 -4z m-123
-217 c-3 -3 -12 -4 -19 -1 -8 3 -5 6 6 6 11 1 17 -2 13 -5z m-147 -103 c0 -6
-4 -13 -10 -16 -5 -3 -10 1 -10 9 0 9 5 16 10 16 6 0 10 -4 10 -9z m157 -137
c-3 -3 -12 -4 -19 -1 -8 3 -5 6 6 6 11 1 17 -2 13 -5z"/>
<path d="M5510 6050 c0 -5 5 -10 10 -10 6 0 10 5 10 10 0 6 -4 10 -10 10 -5 0
-10 -4 -10 -10z"/>
<path d="M5855 6244 c31 -123 75 -340 85 -421 6 -54 13 -103 15 -109 5 -18 94
15 217 81 59 31 145 72 190 90 46 19 87 40 92 48 10 15 8 21 -72 204 l-49 113
-174 5 c-96 3 -205 8 -243 11 l-69 6 8 -28z"/>
<path d="M4640 6225 c-27 -88 -75 -336 -95 -492 l-7 -53 30 0 c28 0 31 3 37
43 25 162 40 245 64 337 l26 105 248 3 247 2 0 43 0 42 -270 0 -270 0 -10 -30z"/>
<path d="M4115 6225 c-76 -125 -178 -377 -209 -517 -6 -25 -3 -28 18 -28 45 0
56 12 80 89 64 197 137 365 164 376 27 10 202 24 305 25 95 0 98 1 107 26 19
50 25 49 -221 49 -221 0 -232 -1 -244 -20z"/>
<path d="M6405 6203 c9 -21 22 -47 29 -58 7 -11 27 -57 45 -102 18 -46 36 -83
40 -83 21 0 287 178 296 198 10 23 25 30 25 12 0 -34 -70 -92 -181 -149 -152
-79 -143 -59 -100 -209 l37 -127 232 -3 232 -2 -10 25 c-8 22 -11 75 -3 75 1
0 12 -22 24 -50 35 -82 48 -76 18 9 -49 140 -172 361 -264 476 -15 19 -30 20
-226 23 l-210 4 16 -39z"/>
<path d="M6395 5876 c-44 -18 -145 -66 -225 -107 l-146 -74 253 -2 c220 -1
253 0 253 14 0 19 -39 174 -48 190 -5 9 -28 3 -87 -21z m92 -88 c-3 -7 -5 -2
-5 12 0 14 2 19 5 13 2 -7 2 -19 0 -25z m22 -68 c0 -9 -4 -8 -9 5 -5 11 -9 27
-9 35 0 9 4 8 9 -5 5 -11 9 -27 9 -35z"/>
<path d="M5675 5633 c-98 -11 -167 -13 -278 -6 l-147 8 0 -127 c0 -71 4 -128
8 -128 5 0 58 25 118 57 225 117 311 157 389 184 90 32 89 32 -90 12z"/>
<path d="M5815 5615 c-55 -17 -156 -60 -225 -95 -69 -35 -174 -88 -234 -117
-60 -30 -105 -58 -100 -62 5 -5 90 -44 189 -86 99 -43 241 -106 316 -141 74
-35 142 -64 150 -64 12 0 14 40 16 243 2 133 -1 267 -5 298 l-7 55 -100 -31z
m-505 -265 c0 -5 -5 -10 -11 -10 -5 0 -7 5 -4 10 3 6 8 10 11 10 2 0 4 -4 4
-10z"/>
<path d="M5975 5623 c4 -15 9 -156 11 -313 l3 -285 303 3 c167 2 307 6 311 9
4 3 5 23 2 46 -3 23 -12 141 -20 262 -8 121 -18 236 -21 255 l-6 35 -231 2
c-128 2 -261 6 -296 9 l-64 6 8 -29z"/>
<path d="M6614 5608 c17 -93 29 -222 34 -393 l7 -190 248 -3 c194 -2 247 0
248 10 1 7 1 67 -1 133 -1 66 1 118 4 114 3 -3 8 -61 11 -130 4 -90 8 -124 18
-124 6 0 13 -13 15 -29 4 -29 3 -29 -40 -22 -29 4 -38 3 -28 -3 10 -7 -69 -10
-229 -10 -134 0 -245 -1 -246 -3 -9 -10 -41 -324 -34 -326 5 -2 31 -21 57 -41
26 -20 94 -69 152 -108 58 -40 121 -88 139 -107 19 -20 39 -36 44 -36 17 0 36
34 37 62 0 33 20 48 20 16 1 -22 1 -22 12 -3 6 10 15 33 19 50 l7 30 1 -28 c1
-15 -8 -53 -19 -84 -11 -31 -18 -59 -15 -61 2 -3 9 8 15 24 5 16 17 41 25 55
8 15 24 65 35 112 81 341 91 634 31 922 -26 125 -54 216 -59 188 -3 -19 -7
-21 -28 -13 -14 6 -100 11 -192 12 -121 1 -149 3 -102 8 54 5 43 7 -64 8
l-128 2 6 -32z m563 -325 c-3 -10 -5 -2 -5 17 0 19 2 27 5 18 2 -10 2 -26 0
-35z"/>
<path d="M3890 5598 c0 -15 -7 -58 -15 -96 -18 -89 -37 -317 -33 -404 l3 -68
308 -3 309 -4 -6 31 c-3 17 -6 95 -7 173 -1 90 -5 140 -11 137 -6 -4 -8 2 -4
13 5 16 -3 24 -43 44 -31 15 -50 31 -51 42 0 9 -8 17 -17 17 -29 0 -105 42
-95 52 6 6 60 8 126 6 127 -3 126 -4 126 58 l0 35 -295 -3 -295 -3 0 -27z"/>
<path d="M4521 5525 c-18 -147 -25 -329 -17 -417 l8 -78 36 20 c62 32 285 128
315 135 41 9 270 123 284 141 7 10 19 13 32 9 31 -10 27 19 -6 45 -16 12 -84
49 -153 81 -91 44 -134 71 -160 100 -33 37 -39 40 -115 49 -44 5 -110 11 -146
13 l-66 3 -12 -101z m307 8 c-21 -2 -55 -2 -75 0 -21 2 -4 4 37 4 41 0 58 -2
38 -4z m-231 -65 c-3 -7 -5 -2 -5 12 0 14 2 19 5 13 2 -7 2 -19 0 -25z m-20
-20 c-3 -8 -6 -5 -6 6 -1 11 2 17 5 13 3 -3 4 -12 1 -19z m0 -40 c-3 -8 -6 -5
-6 6 -1 11 2 17 5 13 3 -3 4 -12 1 -19z"/>
<path d="M4865 5619 c-27 -3 -42 -7 -33 -7 9 -1 29 -13 45 -26 56 -47 146 -84
229 -94 43 -5 80 -8 82 -7 2 2 6 34 9 72 l6 69 -144 -1 c-79 0 -166 -3 -194
-6z"/>
<path d="M4453 5415 c0 -22 2 -30 4 -17 2 12 2 30 0 40 -3 9 -5 -1 -4 -23z"/>
<path d="M5248 5177 c2 -73 5 -137 6 -142 3 -7 35 -8 97 -3 52 4 103 6 114 4
19 -5 237 -9 349 -7 30 1 46 5 40 10 -14 14 -290 133 -454 196 -52 20 -108 45
-125 55 l-30 19 3 -132z"/>
<path d="M5130 5271 c-25 -10 -45 -24 -45 -31 0 -7 -9 -16 -20 -21 -34 -13
-42 -8 -10 6 65 30 4 13 -75 -21 -47 -20 -123 -51 -170 -70 -47 -19 -103 -43
-125 -54 -22 -11 -57 -26 -77 -32 -32 -11 8 -14 273 -16 l309 -4 0 64 c0 34 3
93 7 131 7 76 6 77 -67 48z m-115 -71 c-3 -5 -12 -10 -18 -10 -7 0 -6 4 3 10
19 12 23 12 15 0z m-40 -20 c-3 -5 -11 -10 -16 -10 -6 0 -7 5 -4 10 3 6 11 10
16 10 6 0 7 -4 4 -10z m-45 -20 c-8 -5 -19 -10 -25 -10 -5 0 -3 5 5 10 8 5 20
10 25 10 6 0 3 -5 -5 -10z"/>
<path d="M3230 4935 c0 -63 26 -241 50 -336 26 -107 117 -320 125 -293 4 11
21 29 38 39 18 10 61 40 97 65 36 26 118 84 183 130 84 59 116 87 113 99 -15
51 -36 191 -36 241 0 32 -2 64 -5 72 -4 10 -56 12 -270 9 -200 -2 -269 0 -280
9 -13 11 -15 6 -15 -35z"/>
<path d="M6095 4943 c33 -22 127 -75 208 -119 81 -43 170 -96 198 -116 27 -21
52 -38 54 -38 3 0 5 10 5 23 0 12 9 66 20 120 28 139 27 154 -11 162 -16 4
-76 1 -132 -5 -103 -12 -331 -9 -377 4 -14 5 2 -10 35 -31z"/>
<path d="M4093 4963 c-192 -3 -253 -6 -253 -16 0 -33 22 -198 31 -243 l12 -52
71 47 c39 27 103 66 141 89 94 54 283 183 264 180 -7 -2 -128 -4 -266 -5z"/>
<path d="M4389 4937 c-31 -17 -108 -64 -170 -103 -63 -39 -161 -100 -218 -135
-57 -35 -106 -70 -109 -78 -8 -20 35 -235 55 -277 l17 -34 281 0 282 0 -13 74
c-18 104 -42 329 -50 469 -3 64 -9 117 -13 117 -3 0 -31 -15 -62 -33z"/>
<path d="M4851 4963 l-334 -3 7 -113 c11 -194 37 -471 46 -507 l9 -35 303 3
c166 2 303 4 304 5 5 6 9 657 5 655 -4 -2 -156 -4 -340 -5z"/>
<path d="M5313 4963 c-45 -3 -54 -7 -57 -26 -7 -32 -15 -603 -10 -624 5 -16
13 -17 77 -12 40 3 140 4 222 2 83 -2 186 0 230 4 l80 8 17 100 c9 55 22 165
28 245 6 80 15 161 21 180 5 19 9 53 9 76 l0 41 -212 6 c-209 7 -304 7 -405 0z"/>
<path d="M5986 4962 c-2 -4 -4 -45 -4 -92 -1 -121 -20 -328 -43 -445 -10 -55
-19 -106 -19 -112 0 -16 474 -19 513 -4 49 19 131 305 99 344 -12 14 -225 147
-236 147 -4 0 -63 34 -130 75 -130 78 -172 99 -180 87z"/>
<path d="M6588 4546 c-6 -71 -47 -218 -58 -211 -5 3 -6 -4 -3 -15 5 -19 14
-20 234 -20 125 0 230 4 233 9 9 15 -257 216 -390 294 -8 4 -13 -14 -16 -57z"/>
<path d="M3809 4574 c-7 -9 -47 -39 -89 -67 -41 -28 -109 -76 -149 -106 -41
-31 -89 -64 -105 -73 -30 -17 -23 -17 207 -18 222 0 238 1 233 18 -19 63 -56
202 -61 230 -7 36 -16 40 -36 16z"/>
<path d="M6524 4453 c-3 -16 -13 -48 -20 -72 -8 -24 -13 -46 -11 -48 6 -6 34
68 42 110 8 43 -1 51 -11 10z"/>
<path d="M5910 4267 c0 -15 5 -18 23 -13 12 3 28 6 35 6 28 0 9 18 -23 22 -29
3 -35 1 -35 -15z"/>
<path d="M6525 4270 c-4 -6 5 -10 19 -10 14 0 26 5 26 10 0 6 -9 10 -19 10
-11 0 -23 -4 -26 -10z"/>
<path d="M6743 4273 c9 -2 23 -2 30 0 6 3 -1 5 -18 5 -16 0 -22 -2 -12 -5z"/>
<path d="M6470 4250 c0 -14 -5 -32 -11 -40 -9 -12 -10 -11 -6 8 l5 22 -251 0
c-139 0 -262 -3 -274 -6 -15 -4 -23 -16 -28 -42 -15 -87 -100 -395 -132 -477
-4 -13 23 -15 191 -15 l196 0 51 70 c28 39 53 70 55 70 3 0 -6 -21 -19 -47
-44 -87 -50 -103 -44 -109 4 -4 10 2 14 12 8 24 35 62 96 139 28 35 60 93 78
140 17 44 39 98 49 120 36 81 55 154 42 167 -9 9 -12 6 -12 -12z"/>
<path d="M5388 4233 l-138 -4 -1 -107 c0 -59 -1 -179 -2 -266 l-1 -160 159 2
c88 2 190 5 227 8 l66 6 48 145 c27 80 50 140 52 134 4 -11 -5 -42 -55 -203
-10 -32 -11 -53 -5 -64 9 -16 10 -15 16 3 4 11 3 28 0 38 -5 12 -4 16 3 12 7
-4 9 0 7 11 -3 9 8 55 25 102 36 103 73 248 68 264 -2 6 -10 -7 -17 -29 -7
-22 -16 -44 -21 -49 -4 -5 1 20 11 55 11 35 20 74 20 87 l0 22 -162 -2 c-90
-1 -225 -4 -300 -5z"/>
<path d="M5885 4229 c-4 -6 -5 -12 -2 -15 2 -3 7 2 10 11 7 17 1 20 -8 4z"/>
<path d="M4580 4085 c0 -5 5 -17 10 -25 5 -8 10 -10 10 -5 0 6 -5 17 -10 25
-5 8 -10 11 -10 5z"/>
<path d="M2655 3715 c-66 -41 -168 -99 -227 -131 l-107 -57 31 -61 c113 -225
345 -544 558 -769 l92 -97 97 94 c53 51 140 133 194 181 53 47 97 90 97 95 0
4 -11 15 -24 23 -34 23 -229 243 -303 343 -76 104 -156 232 -224 360 -28 52
-54 93 -57 93 -4 -1 -61 -34 -127 -74z"/>
<path d="M5823 3673 c31 -2 83 -2 115 0 31 2 5 3 -58 3 -63 0 -89 -1 -57 -3z"/>
<path d="M4798 3653 c23 -2 61 -2 85 0 23 2 4 4 -43 4 -47 0 -66 -2 -42 -4z"/>
<path d="M6659 3543 l-34 -38 38 34 c34 33 42 41 34 41 -2 0 -19 -17 -38 -37z"/>
<path d="M6570 3469 c-25 -22 -31 -31 -15 -20 51 35 69 51 64 55 -3 3 -25 -13
-49 -35z"/>
<path d="M7673 4993 c9 -2 25 -2 35 0 9 3 1 5 -18 5 -19 0 -27 -2 -17 -5z"/>
<path d="M2298 5013 c7 -3 16 -2 19 1 4 3 -2 6 -13 5 -11 0 -14 -3 -6 -6z"/>
<path d="M2338 5003 c6 -2 18 -2 25 0 6 3 1 5 -13 5 -14 0 -19 -2 -12 -5z"/>
<path d="M8770 4970 c-12 -8 -9 -10 13 -10 16 0 26 4 22 10 -8 12 -16 12 -35
0z"/>
<path d="M8807 4879 c-7 -27 -1 -37 14 -22 7 7 8 17 2 28 -9 15 -11 15 -16 -6z"/>
<path d="M1735 4010 c-8 -12 20 -24 35 -15 5 3 10 10 10 16 0 12 -37 12 -45
-1z"/>
<path d="M1780 3920 c0 -5 5 -10 10 -10 6 0 10 5 10 10 0 6 -4 10 -10 10 -5 0
-10 -4 -10 -10z"/>
<path d="M6251 1614 c-23 -17 -24 -30 -1 -88 9 -25 10 -25 57 -11 69 21 93 63
57 99 -20 21 -83 20 -113 0z"/>
<path d="M2100 7983 c-41 -40 -70 -73 -65 -73 12 0 151 138 144 143 -2 2 -38
-29 -79 -70z"/>
<path d="M1965 7832 c-5 -4 -23 -23 -40 -42 -28 -33 -28 -33 13 5 38 35 47 45
40 45 -2 0 -7 -4 -13 -8z"/>
<path d="M1839 7693 c-13 -16 -12 -17 4 -4 16 13 21 21 13 21 -2 0 -10 -8 -17
-17z"/>
<path d="M1800 7654 c0 -8 5 -12 10 -9 6 3 10 10 10 16 0 5 -4 9 -10 9 -5 0
-10 -7 -10 -16z"/>
<path d="M1774 7625 c-4 -11 -12 -23 -18 -27 -8 -5 -8 -8 0 -8 17 0 37 27 31
42 -3 9 -7 6 -13 -7z"/>
<path d="M1737 7575 c3 -8 9 -12 14 -9 12 7 11 11 -5 17 -10 4 -13 1 -9 -8z"/>
<path d="M1713 7554 c4 -4 -1 -16 -10 -26 -15 -16 -27 -48 -18 -48 1 0 14 15
29 34 23 30 24 35 9 41 -10 3 -14 3 -10 -1z"/>
<path d="M1664 7472 c3 -5 0 -13 -6 -15 -9 -4 -10 -6 -1 -6 17 -1 25 16 12 25
-7 4 -9 3 -5 -4z"/>
<path d="M1616 7408 c3 -5 10 -6 15 -3 13 9 11 12 -6 12 -8 0 -12 -4 -9 -9z"/>
<path d="M1560 7319 c0 -5 5 -7 10 -4 6 3 10 8 10 11 0 2 -4 4 -10 4 -5 0 -10
-5 -10 -11z"/>
<path d="M1530 7270 c-9 -6 -10 -10 -3 -10 6 0 15 5 18 10 8 12 4 12 -15 0z"/>
<path d="M1490 7200 c-6 -11 -8 -20 -6 -20 3 0 10 9 16 20 6 11 8 20 6 20 -3
0 -10 -9 -16 -20z"/>
<path d="M1416 7081 c-15 -28 -24 -51 -22 -51 7 0 57 93 52 98 -3 2 -16 -19
-30 -47z"/>
<path d="M7180 6119 c-26 -5 -15 -7 43 -8 46 0 76 3 72 8 -6 11 -61 11 -115 0z"/>
<path d="M9190 5899 l-55 -51 63 48 c34 26 62 49 62 50 0 12 -21 -3 -70 -47z"/>
<path d="M8298 5583 c61 -2 163 -2 225 0 61 1 11 3 -113 3 -124 0 -174 -2
-112 -3z"/>
<path d="M874 5498 c-5 -7 -12 -47 -16 -88 -3 -41 -9 -97 -12 -125 -4 -27 -11
-86 -16 -130 -6 -44 -12 -141 -15 -215 -3 -74 -7 -153 -8 -175 -2 -22 3 -60
10 -85 8 -24 11 -51 8 -58 -3 -8 2 -44 11 -80 14 -58 24 -149 39 -332 2 -25 5
-45 5 -45 1 0 3 -9 5 -20 2 -11 8 -38 14 -60 10 -40 26 -166 25 -197 0 -9 2
-15 6 -13 3 2 14 -7 24 -20 10 -14 22 -22 26 -20 5 3 16 -19 25 -47 9 -29 20
-60 24 -68 4 -8 15 -46 25 -85 9 -38 22 -84 27 -102 5 -17 13 -56 16 -85 3
-29 12 -62 19 -73 6 -11 15 -36 19 -55 8 -40 113 -263 126 -268 5 -2 7 -8 3
-13 -3 -5 0 -8 7 -7 6 2 22 -20 35 -49 19 -44 21 -51 7 -46 -12 5 -9 -4 10
-29 15 -19 27 -42 27 -50 0 -9 7 -22 17 -29 9 -8 24 -32 34 -55 10 -22 27 -48
38 -58 11 -10 26 -35 32 -55 7 -20 23 -49 36 -66 13 -16 54 -75 90 -130 36
-54 81 -117 99 -139 19 -22 37 -51 40 -63 4 -13 11 -23 18 -23 6 0 36 -30 66
-67 30 -36 62 -73 70 -82 39 -43 89 -109 104 -138 9 -18 21 -33 27 -33 6 0 32
-23 57 -52 58 -64 213 -218 221 -218 3 -1 29 -20 58 -43 28 -23 105 -86 171
-139 65 -53 126 -104 135 -113 9 -9 30 -21 47 -26 16 -6 30 -15 30 -20 0 -5 6
-9 13 -9 7 0 23 -9 35 -20 12 -11 25 -21 29 -21 11 0 114 -68 150 -99 7 -5 15
-10 18 -10 3 0 14 -8 24 -18 44 -39 55 -45 85 -46 17 -1 91 -32 164 -69 73
-37 178 -86 235 -108 127 -51 210 -90 219 -104 4 -5 8 -7 8 -3 0 4 15 2 33 -3
57 -18 142 -38 145 -34 2 2 -40 18 -94 35 -85 26 -162 58 -144 60 3 0 59 -18
125 -40 133 -45 396 -112 525 -134 47 -8 105 -19 130 -25 55 -13 90 -14 90 -2
0 4 -11 6 -24 4 -13 -3 -27 0 -30 6 -5 7 6 11 31 11 28 0 34 3 23 10 -11 7
-11 10 -2 10 7 0 10 5 6 11 -3 6 -15 8 -25 6 -11 -3 -32 1 -48 9 -16 8 -65 21
-108 29 -43 7 -130 29 -193 48 -63 20 -151 45 -196 56 -44 11 -123 38 -175 60
-52 21 -105 42 -119 46 -14 4 -41 18 -60 31 -20 13 -63 34 -95 48 -91 36 -332
154 -398 195 -32 20 -86 54 -120 76 -34 22 -98 62 -142 89 -93 58 -285 201
-388 289 -259 221 -573 571 -778 866 -24 35 -59 84 -77 110 -159 224 -382 677
-453 924 -15 53 -36 121 -47 150 -37 99 -112 443 -143 657 -25 169 -34 264
-39 445 -3 127 -8 212 -9 190 -3 -35 -4 -37 -10 -15 -8 26 -7 58 5 183 6 74 6
77 -15 77 -12 0 -21 6 -21 14 0 21 17 29 24 11 7 -19 26 -19 26 0 0 8 -4 15
-10 15 -6 0 -6 9 0 26 7 17 7 31 0 42 -8 15 -9 14 -10 -5 0 -13 -5 -23 -10
-23 -6 0 -15 -10 -20 -22 -8 -21 -9 -21 -9 7 0 17 4 59 9 95 9 67 8 81 -6 58z
m-27 -360 c-3 -8 -6 -5 -6 6 -1 11 2 17 5 13 3 -3 4 -12 1 -19z m51 -853 c0
-71 -14 -20 -21 77 l-6 73 14 -50 c7 -27 13 -72 13 -100z m79 -397 c-3 -8 -6
-5 -6 6 -1 11 2 17 5 13 3 -3 4 -12 1 -19z"/>
<path d="M925 5155 c-4 -36 -5 -68 -3 -71 3 -2 8 25 12 62 4 37 5 69 2 71 -2
3 -7 -25 -11 -62z"/>
<path d="M7586 3683 c-98 -192 -221 -362 -427 -594 -50 -57 -98 -109 -107
-116 -13 -10 -9 -19 26 -61 22 -26 62 -68 89 -92 26 -24 89 -83 140 -132 50
-48 96 -88 101 -88 21 0 282 286 379 415 142 189 313 461 313 499 0 13 -166
119 -260 166 -25 13 -77 42 -117 66 -39 24 -74 44 -77 44 -3 0 -30 -48 -60
-107z"/>
<path d="M2018 2553 c7 -3 16 -2 19 1 4 3 -2 6 -13 5 -11 0 -14 -3 -6 -6z"/>
<path d="M7230 1130 c-8 -5 -10 -10 -5 -10 6 0 17 5 25 10 8 5 11 10 5 10 -5
0 -17 -5 -25 -10z"/>
<path d="M7324 1074 c-18 -14 -18 -15 4 -4 12 6 22 13 22 15 0 8 -5 6 -26 -11z"/>
<path d="M7110 1070 c-9 -6 -10 -10 -3 -10 6 0 15 5 18 10 8 12 4 12 -15 0z"/>
<path d="M7065 1050 c-3 -6 1 -7 9 -4 18 7 21 14 7 14 -6 0 -13 -4 -16 -10z"/>
<path d="M6970 1009 c-66 -32 -150 -64 -390 -150 -74 -26 -130 -48 -125 -48
27 -2 353 112 452 158 62 28 117 51 123 51 5 0 10 5 10 10 0 13 6 14 -70 -21z"/>
<path d="M6840 850 c-8 -5 -10 -10 -5 -10 6 0 17 5 25 10 8 5 11 10 5 10 -5 0
-17 -5 -25 -10z"/>
<path d="M6335 789 c-38 -10 -117 -28 -175 -40 -57 -13 -100 -24 -94 -26 17
-6 237 36 248 47 6 6 19 10 31 11 28 1 105 27 80 27 -11 0 -51 -8 -90 -19z"/>
<path d="M3945 745 c17 -8 37 -14 45 -14 8 0 -1 7 -20 14 -46 18 -64 17 -25 0z"/>
<path d="M4085 705 c22 -8 49 -14 60 -14 11 0 0 7 -25 15 -25 7 -52 13 -60 13
-8 -1 3 -7 25 -14z"/>
<path d="M4555 700 c-3 -5 -1 -10 4 -10 6 0 11 5 11 10 0 6 -2 10 -4 10 -3 0
-8 -4 -11 -10z"/>
<path d="M4200 673 c19 -9 55 -17 80 -20 40 -3 38 -1 -25 17 -83 23 -104 24
-55 3z"/>
<path d="M4624 679 c-6 -11 24 -19 69 -19 25 0 37 4 32 9 -12 11 -95 19 -101
10z"/>
<path d="M6318 683 c7 -3 16 -2 19 1 4 3 -2 6 -13 5 -11 0 -14 -3 -6 -6z"/>
<path d="M4740 657 c0 -16 3 -18 12 -9 13 13 32 16 24 4 -5 -8 232 -8 240 1 4
4 -99 15 -223 23 -49 3 -53 1 -53 -19z"/>
<path d="M6230 660 c0 -5 7 -7 15 -4 8 4 15 8 15 10 0 2 -7 4 -15 4 -8 0 -15
-4 -15 -10z"/>
<path d="M6075 635 c-103 -21 -106 -22 -45 -19 98 6 160 15 160 25 0 4 7 5 17
2 11 -4 14 -3 9 5 -9 15 -6 15 -141 -13z"/>
<path d="M4570 640 c43 -11 227 -25 219 -17 -3 4 -36 9 -75 12 -38 2 -94 7
-124 10 -46 4 -50 3 -20 -5z"/>
<path d="M5098 643 c7 -3 16 -2 19 1 4 3 -2 6 -13 5 -11 0 -14 -3 -6 -6z"/>
<path d="M4438 623 c7 -3 16 -2 19 1 4 3 -2 6 -13 5 -11 0 -14 -3 -6 -6z"/>
<path d="M4483 613 c9 -2 23 -2 30 0 6 3 -1 5 -18 5 -16 0 -22 -2 -12 -5z"/>
<path d="M4808 613 c6 -2 18 -2 25 0 6 3 1 5 -13 5 -14 0 -19 -2 -12 -5z"/>
<path d="M4570 600 c8 -5 24 -9 35 -9 l20 0 -20 9 c-11 5 -27 9 -35 9 -13 1
-13 0 0 -9z"/>
<path d="M5918 603 c7 -3 16 -2 19 1 4 3 -2 6 -13 5 -11 0 -14 -3 -6 -6z"/>
<path d="M4640 592 c0 -5 7 -9 15 -9 8 0 15 4 15 9 0 4 -7 8 -15 8 -8 0 -15
-4 -15 -8z"/>
<path d="M5828 593 c6 -2 18 -2 25 0 6 3 1 5 -13 5 -14 0 -19 -2 -12 -5z"/>
<path d="M4693 583 c9 -2 25 -2 35 0 9 3 1 5 -18 5 -19 0 -27 -2 -17 -5z"/>
<path d="M5712 581 c-11 -7 -10 -10 3 -15 23 -8 27 -8 20 3 -3 5 9 12 27 14
l33 4 -35 1 c-19 1 -41 -2 -48 -7z"/>
<path d="M4850 568 c30 -6 78 -11 105 -13 28 -1 82 -6 120 -10 39 -4 75 -6 80
-6 6 0 98 5 205 11 107 5 224 14 260 19 52 7 42 8 -45 3 -135 -8 -521 -8 -670
0 -92 5 -101 5 -55 -4z"/>
</g>
</svg>
